<svg width="17" height="48" viewBox="0 0 17 48" fill="none" xmlns="http://www.w3.org/2000/svg">
<path d="M15.5751 19.0792C14.9681 19.4506 14.4653 19.97 14.1138 20.5887C13.7622 21.2075 13.5734 21.9052 13.5651 22.6168C13.5675 23.4176 13.8047 24.2001 14.2475 24.8674C14.6902 25.5347 15.319 26.0575 16.0559 26.371C15.7653 27.3084 15.3354 28.1967 14.7804 29.0061C13.9863 30.1492 13.156 31.2923 11.8926 31.2923C10.6292 31.2923 10.3043 30.5583 8.84826 30.5583C7.42826 30.5583 6.92306 31.3164 5.76826 31.3164C4.61346 31.3164 3.80716 30.2575 2.88066 28.958C1.65669 27.1375 0.984019 25.0026 0.943359 22.8093C0.943359 19.1993 3.28976 17.2863 5.59996 17.2863C6.82736 17.2863 7.84996 18.0925 8.61996 18.0925C9.35396 18.0925 10.4971 17.2382 11.8929 17.2382C12.6105 17.2196 13.3217 17.3778 13.9639 17.6989C14.606 18.0199 15.1593 18.4939 15.5751 19.0792ZM8.71646 17.0336C8.63167 17.0333 8.54708 17.0253 8.46376 17.0096C8.44023 16.8988 8.42813 16.7859 8.42766 16.6726C8.46782 15.7413 8.82923 14.8527 9.45046 14.1578C10.1477 13.3569 11.125 12.8532 12.1819 12.75C12.207 12.8727 12.2191 12.9977 12.218 13.123C12.195 14.0729 11.8467 14.9861 11.2313 15.71C10.9237 16.0896 10.5421 16.4026 10.1098 16.6301C9.67752 16.8577 9.20346 16.9949 8.71646 17.0336Z" fill="#D8D8D8"/>
</svg>
